<?xml version="1.0" standalone="no"?>
<!DOCTYPE svg PUBLIC "-//W3C//DTD SVG 20010904//EN"
 "http://www.w3.org/TR/2001/REC-SVG-20010904/DTD/svg10.dtd">
<svg version="1.0" xmlns="http://www.w3.org/2000/svg"
 width="512.000000pt" height="512.000000pt" viewBox="0 0 512.000000 512.000000"
 preserveAspectRatio="xMidYMid meet">

<g transform="translate(0.000000,512.000000) scale(0.100000,-0.100000)"
fill="#000000" stroke="none">
<path d="M3395 5038 c-2 -7 -5 -49 -8 -93 -7 -144 -79 -242 -253 -350 -99 -61
-201 -135 -234 -170 -56 -60 -146 -85 -220 -62 -41 13 -381 225 -523 326 -68
48 -88 87 -113 207 -19 94 -36 124 -69 124 -39 0 -50 -32 -49 -155 1 -165 28
-258 173 -577 39 -87 83 -195 98 -240 15 -46 31 -89 36 -95 7 -9 43 -13 118
-13 l108 0 33 67 c34 68 33 67 141 119 52 24 122 23 172 -4 22 -12 45 -22 52
-22 23 0 72 -51 84 -88 22 -69 29 -72 159 -72 77 0 120 4 128 12 7 7 12 37 12
69 0 74 16 154 40 204 11 22 57 81 102 130 44 50 93 115 107 145 24 50 26 66
26 175 0 100 -5 140 -29 235 -32 125 -39 140 -68 140 -10 0 -20 -6 -23 -12z"/>
<path d="M2687 4030 c-14 -11 -33 -20 -42 -20 -31 0 -55 -20 -55 -46 0 -14 -9
-37 -20 -51 -11 -14 -20 -31 -20 -38 0 -7 9 -24 20 -38 11 -14 20 -34 20 -45
0 -27 26 -52 54 -52 13 0 29 -7 36 -15 7 -8 28 -15 47 -15 21 0 36 6 39 15 4
8 18 15 34 15 33 0 60 28 60 62 0 14 7 28 15 32 9 3 15 18 15 39 0 19 -7 40
-15 47 -8 7 -15 23 -15 36 0 31 -26 54 -61 54 -16 0 -29 4 -29 8 0 7 -42 32
-54 32 -2 0 -15 -9 -29 -20z m69 -131 c13 -15 16 -24 8 -36 -20 -32 -41 -38
-63 -19 -24 22 -26 41 -8 61 17 20 41 18 63 -6z"/>
<path d="M2243 3788 c-5 -7 -19 -60 -32 -118 -24 -109 -56 -198 -211 -585
-125 -312 -212 -548 -259 -707 -93 -307 -115 -446 -237 -1493 -74 -644 -80
-760 -35 -796 33 -27 68 -24 137 11 118 59 238 179 299 301 l24 45 88 -18
c108 -23 220 -19 285 10 131 58 220 226 190 358 l-9 42 31 -9 c58 -17 202 -11
269 12 156 52 280 184 322 344 8 33 15 74 15 91 0 20 6 34 16 38 9 3 69 6 134
6 147 0 205 18 278 88 144 137 170 323 106 762 -52 363 -151 760 -275 1097
-59 162 -84 258 -99 378 -6 50 -13 105 -16 123 l-5 32 -138 0 -139 0 -22 -54
c-27 -68 -49 -87 -134 -121 -84 -34 -124 -31 -221 16 -71 35 -72 35 -116 132
l-12 27 -112 0 c-79 0 -115 -4 -122 -12z"/>
</g>
</svg>
